# Blender 3.6.0
# www.blender.org
o Cube
v 0.352146 1.755966 -0.352146
v 0.352146 0.013039 -0.352146
v 0.352146 1.755966 0.352146
v 0.352146 0.013039 0.352146
v -0.352146 1.755966 -0.352146
v -0.352146 0.013039 -0.352146
v -0.352146 1.755966 0.352146
v -0.352146 0.013039 0.352146
v 0.655221 2.843854 -0.655221
v 1.294173 1.335764 -1.294173
v 0.472674 2.843854 0.563947
v 1.294173 1.335764 1.294173
v -0.563947 2.843854 -0.472674
v -1.294173 1.335764 -1.294173
v -0.563947 2.843854 0.563947
v -1.294173 1.335764 1.294173
v 1.294173 1.335764 -1.294173
v 1.294173 1.335764 1.294173
v -1.294173 1.335764 -1.294173
v -1.294173 1.335764 1.294173
v -0.821461 1.601964 -0.821461
v -0.821461 1.601964 0.821461
v 0.821461 1.601964 -0.821461
v 0.821461 1.601964 0.821461
v 0.202420 4.378103 -0.202420
v 0.967510 2.717115 -0.967510
v 0.202420 4.378103 0.202420
v 0.967510 2.717115 0.967510
v -0.202420 4.378103 -0.202420
v -0.967510 2.717115 -0.967510
v -0.202420 4.378103 0.202420
v -0.967510 2.717115 0.967510
v 0.132572 4.866467 -0.132572
v 0.486986 4.218524 -0.486986
v 0.132572 4.866467 0.132572
v 0.486986 4.218524 0.486986
v -0.132572 4.866467 -0.132572
v -0.486986 4.218524 -0.486986
v -0.132572 4.866467 0.132572
v -0.486986 4.218524 0.486986
vn -0.0000 -0.0000 1.0000
vn -1.0000 -0.0000 -0.0000
vn 1.0000 -0.0000 -0.0000
vn -0.0000 -0.0000 -1.0000
vn -0.0000 0.4358 0.9000
vn -0.9000 0.4358 -0.0000
vn 0.9208 0.3901 -0.0000
vn -0.0000 0.3901 -0.9208
vn -0.0000 -1.0000 -0.0000
vn 0.4907 -0.8713 -0.0000
vn -0.0000 -0.8713 0.4907
vn -0.0000 -0.8713 -0.4907
vn -0.4907 -0.8713 -0.0000
vn -0.0000 0.4184 0.9083
vn -0.9083 0.4184 -0.0000
vn 0.9083 0.4184 -0.0000
vn -0.0000 0.4184 -0.9083
vn -0.0000 1.0000 -0.0000
vn -0.0000 0.4799 0.8773
vn -0.8773 0.4799 -0.0000
vn 0.8773 0.4799 -0.0000
vn -0.0000 0.4799 -0.8773
vn 0.8441 0.5210 0.1264
vn -0.1264 0.5210 -0.8441
vt 0.625000 0.750000
vt 0.375000 1.000000
vt 0.375000 0.750000
vt 0.625000 0.000000
vt 0.375000 0.250000
vt 0.375000 0.000000
vt 0.625000 0.500000
vt 0.375000 0.500000
vt 0.625000 0.250000
vt 0.329342 0.545658
vt 0.170658 0.704342
vt 0.170658 0.545658
vt 0.125000 0.500000
vt 0.329342 0.704342
vt 0.125000 0.750000
vt 0.875000 0.500000
vt 0.625000 1.000000
vt 0.875000 0.750000
s 0
f 3/1/1 8/2/1 4/3/1
f 7/4/2 6/5/2 8/6/2
f 1/7/3 4/3/3 2/8/3
f 5/9/4 2/8/4 6/5/4
f 11/1/5 16/2/5 12/3/5
f 16/6/6 13/9/6 14/5/6
f 9/7/7 12/3/7 10/8/7
f 14/5/8 9/7/8 10/8/8
f 23/10/9 22/11/9 21/12/9
f 22/11/10 19/13/10 21/12/10
f 21/12/11 17/8/11 23/10/11
f 24/14/12 20/15/12 22/11/12
f 23/10/13 18/3/13 24/14/13
f 27/1/14 32/2/14 28/3/14
f 31/4/15 30/5/15 32/6/15
f 26/8/9 32/15/9 30/13/9
f 25/7/16 28/3/16 26/8/16
f 29/9/17 26/8/17 30/5/17
f 37/16/18 35/1/18 33/7/18
f 35/1/19 40/2/19 36/3/19
f 39/4/20 38/5/20 40/6/20
f 34/8/9 40/15/9 38/13/9
f 33/7/21 36/3/21 34/8/21
f 37/9/22 34/8/22 38/5/22
f 3/1/1 7/17/1 8/2/1
f 7/4/2 5/9/2 6/5/2
f 1/7/3 3/1/3 4/3/3
f 5/9/4 1/7/4 2/8/4
f 11/1/5 15/17/5 16/2/5
f 16/6/6 15/4/6 13/9/6
f 9/7/23 11/1/23 12/3/23
f 14/5/24 13/9/24 9/7/24
f 23/10/9 24/14/9 22/11/9
f 22/11/10 20/15/10 19/13/10
f 21/12/11 19/13/11 17/8/11
f 24/14/12 18/3/12 20/15/12
f 23/10/13 17/8/13 18/3/13
f 27/1/14 31/17/14 32/2/14
f 31/4/15 29/9/15 30/5/15
f 26/8/9 28/3/9 32/15/9
f 25/7/16 27/1/16 28/3/16
f 29/9/17 25/7/17 26/8/17
f 37/16/18 39/18/18 35/1/18
f 35/1/19 39/17/19 40/2/19
f 39/4/20 37/9/20 38/5/20
f 34/8/9 36/3/9 40/15/9
f 33/7/21 35/1/21 36/3/21
f 37/9/22 33/7/22 34/8/22
