# Blender 3.6.0
# www.blender.org
mtllib board.mtl
o Cube
v -5.120000 -5.120000 0.000000
v 5.120000 -5.120000 0.000000
v -5.120000 5.120000 0.000000
v 5.120000 5.120000 0.000000
v -5.120000 5.120000 0.000000
v -5.120000 -5.120000 0.000000
v 5.120000 -5.120000 0.000000
v 5.120000 5.120000 0.000000
v -5.120000 5.120000 1.000000
v -5.120000 -5.120000 1.000000
v 5.120000 -5.120000 1.000000
v 5.120000 5.120000 1.000000
v -5.120000 5.120000 1.000000
v -5.120000 -5.120000 1.000000
v 5.120000 -5.120000 1.000000
v 5.120000 5.120000 1.000000
v -5.120000 5.120000 1.000000
v -5.120000 -5.120000 1.000000
v 5.120000 -5.120000 1.000000
v 5.120000 5.120000 1.000000
v -5.852674 5.852674 1.000000
v -5.852674 -5.852674 1.000000
v 5.852674 -5.852674 1.000000
v 5.852674 5.852674 1.000000
v -5.852674 5.852674 1.000000
v -5.852674 -5.852674 1.000000
v 5.852674 -5.852674 1.000000
v 5.852674 5.852674 1.000000
v -5.852674 5.852674 -1.011347
v -5.852674 -5.852674 -1.011347
v 5.852674 -5.852674 -1.011347
v 5.852674 5.852674 -1.011347
vn -0.0000 -0.0000 1.0000
vn -1.0000 -0.0000 -0.0000
vn 1.0000 -0.0000 -0.0000
vn -0.0000 -1.0000 -0.0000
vn -0.0000 1.0000 -0.0000
vt 1.000000 0.000000
vt 0.000000 1.000000
vt 0.000000 0.000000
vt 1.000000 1.000000
s 0
usemtl Material
f 2/1/1 3/2/1 1/3/1
f 11/1/2 8/4/2 7/1/2
f 2/1/1 8/4/1 7/1/1
f 3/2/1 6/3/1 5/2/1
f 4/4/1 5/2/1 8/4/1
f 1/3/1 7/1/1 6/3/1
f 9/2/3 6/3/3 5/2/3
f 12/4/4 5/2/4 8/4/4
f 10/3/5 7/1/5 6/3/5
f 12/4/1 15/1/1 16/4/1
f 10/3/1 13/2/1 14/3/1
f 9/2/1 16/4/1 13/2/1
f 11/1/1 14/3/1 15/1/1
f 14/3/1 17/2/1 18/3/1
f 13/2/1 20/4/1 17/2/1
f 15/1/1 18/3/1 19/1/1
f 16/4/1 19/1/1 20/4/1
f 19/1/1 24/4/1 20/4/1
f 18/3/1 21/2/1 22/3/1
f 17/2/1 24/4/1 21/2/1
f 19/1/1 22/3/1 23/1/1
f 21/2/1 28/4/1 25/2/1
f 23/1/1 26/3/1 27/1/1
f 24/4/1 27/1/1 28/4/1
f 22/3/1 25/2/1 26/3/1
f 26/3/4 31/1/4 27/1/4
f 27/1/3 32/4/3 28/4/3
f 25/2/2 30/3/2 26/3/2
f 28/4/5 29/2/5 25/2/5
f 2/1/1 4/4/1 3/2/1
f 11/1/2 12/4/2 8/4/2
f 2/1/1 4/4/1 8/4/1
f 3/2/1 1/3/1 6/3/1
f 4/4/1 3/2/1 5/2/1
f 1/3/1 2/1/1 7/1/1
f 9/2/3 10/3/3 6/3/3
f 12/4/4 9/2/4 5/2/4
f 10/3/5 11/1/5 7/1/5
f 12/4/1 11/1/1 15/1/1
f 10/3/1 9/2/1 13/2/1
f 9/2/1 12/4/1 16/4/1
f 11/1/1 10/3/1 14/3/1
f 14/3/1 13/2/1 17/2/1
f 13/2/1 16/4/1 20/4/1
f 15/1/1 14/3/1 18/3/1
f 16/4/1 15/1/1 19/1/1
f 19/1/1 23/1/1 24/4/1
f 18/3/1 17/2/1 21/2/1
f 17/2/1 20/4/1 24/4/1
f 19/1/1 18/3/1 22/3/1
f 21/2/1 24/4/1 28/4/1
f 23/1/1 22/3/1 26/3/1
f 24/4/1 23/1/1 27/1/1
f 22/3/1 21/2/1 25/2/1
f 26/3/4 30/3/4 31/1/4
f 27/1/3 31/1/3 32/4/3
f 25/2/2 29/2/2 30/3/2
f 28/4/5 32/4/5 29/2/5
