# Blender 3.6.0
# www.blender.org
mtllib board2.mtl
o Cube
v 5.800000 0.500000 -5.800000
v 5.800000 0.000000 -5.800000
v 5.800000 0.500000 5.800000
v 5.800000 0.000000 5.800000
v -5.800000 0.500000 -5.800000
v -5.800000 0.000000 -5.800000
v -5.800000 0.500000 5.800000
v -5.800000 0.000000 5.800000
v 5.800000 0.500000 -5.800000
v 5.800000 0.000000 -5.800000
v 5.800000 0.500000 5.800000
v -5.800000 0.500000 -5.800000
v -5.800000 0.500000 5.800000
v 5.120000 0.500000 -5.120000
v 5.120000 0.500000 5.120000
v -5.120000 0.500000 -5.120000
v -5.120000 0.500000 5.120000
v 5.120000 0.500000 -5.120000
v 5.120000 0.500000 5.120000
v -5.120000 0.500000 -5.120000
v -5.120000 0.500000 5.120000
v 5.120000 0.000000 5.120000
v -5.120000 0.000000 5.120000
v 5.120000 0.000000 -5.120000
v -5.120000 0.000000 -5.120000
vn -0.0000 1.0000 -0.0000
vn -0.0000 -0.0000 1.0000
vn -1.0000 -0.0000 -0.0000
vn 1.0000 -0.0000 -0.0000
vn -0.0000 -0.0000 -1.0000
vt 0.000000 0.000000
vt 0.625000 0.750000
vt 0.375000 1.000000
vt 0.375000 0.750000
vt 0.625000 0.000000
vt 0.375000 0.250000
vt 0.375000 0.000000
vt 0.625000 0.500000
vt 0.375000 0.500000
vt 0.625000 0.250000
vt 0.625000 1.000000
s 0
usemtl Material
f 1/1/1 18/1/1 14/1/1
f 3/2/2 8/3/2 4/4/2
f 7/5/3 6/6/3 8/7/3
f 1/8/4 4/4/4 2/9/4
f 5/10/5 2/9/5 6/6/5
f 17/5/4 25/10/4 16/10/4
f 5/10/1 14/8/1 1/8/1
f 3/2/1 17/11/1 7/11/1
f 5/1/1 20/1/1 16/1/1
f 7/5/1 16/10/1 5/10/1
f 1/8/1 15/2/1 3/2/1
f 7/1/1 21/1/1 17/1/1
f 3/1/1 19/1/1 15/1/1
f 15/2/5 23/11/5 17/11/5
f 16/10/2 24/8/2 14/8/2
f 14/8/3 22/2/3 15/2/3
f 1/1/1 9/1/1 18/1/1
f 3/2/2 7/11/2 8/3/2
f 7/5/3 5/10/3 6/6/3
f 1/8/4 3/2/4 4/4/4
f 5/10/5 1/8/5 2/9/5
f 17/5/4 23/5/4 25/10/4
f 5/10/1 16/10/1 14/8/1
f 3/2/1 15/2/1 17/11/1
f 5/1/1 12/1/1 20/1/1
f 7/5/1 17/5/1 16/10/1
f 1/8/1 14/8/1 15/2/1
f 7/1/1 13/1/1 21/1/1
f 3/1/1 11/1/1 19/1/1
f 15/2/5 22/2/5 23/11/5
f 16/10/2 25/10/2 24/8/2
f 14/8/3 24/8/3 22/2/3
l 2 10
o Cube.001
v 5.120000 0.000000 5.120000
v -5.120000 0.000000 5.120000
v 5.120000 0.000000 -5.120000
v -5.120000 0.000000 -5.120000
vn -0.0000 1.0000 -0.0000
vt 0.875000 0.500000
vt 0.625000 0.750000
vt 0.625000 0.500000
vt 0.875000 0.750000
s 0
usemtl Material
f 29/12/6 26/13/6 28/14/6
f 29/12/6 27/15/6 26/13/6
