# Blender 3.6.0
# www.blender.org
mtllib board4.mtl
o Board_Walls
v 5.800000 0.500000 -5.800000
v 5.800000 0.000000 -5.800000
v 5.800000 0.500000 5.800000
v 5.800000 0.000000 5.800000
v -5.800000 0.500000 -5.800000
v -5.800000 0.000000 -5.800000
v -5.800000 0.500000 5.800000
v -5.800000 0.000000 5.800000
v 5.800000 0.500000 -5.800000
v 5.800000 0.000000 -5.800000
v 5.800000 0.500000 5.800000
v -5.800000 0.500000 -5.800000
v -5.800000 0.500000 5.800000
v 5.120000 0.500000 -5.120000
v 5.120000 0.500000 5.120000
v -5.120000 0.500000 -5.120000
v -5.120000 0.500000 5.120000
v 5.120000 0.500000 -5.120000
v 5.120000 0.500000 5.120000
v -5.120000 0.500000 -5.120000
v -5.120000 0.500000 5.120000
v 5.120000 0.000000 5.120000
v -5.120000 0.000000 5.120000
v 5.120000 0.000000 -5.120000
v -5.120000 0.000000 -5.120000
vn -0.0000 1.0000 -0.0000
vn -0.0000 -0.0000 1.0000
vn -1.0000 -0.0000 -0.0000
vn 1.0000 -0.0000 -0.0000
vn -0.0000 -0.0000 -1.0000
vt 0.580510 0.000153
vt 0.580568 0.058755
vt 0.580510 0.058755
vt 0.043243 0.000153
vt 0.000153 0.999847
vt 0.000153 0.000153
vt 0.246935 0.999847
vt 0.290025 0.000153
vt 0.290025 0.999847
vt 0.333422 0.000153
vt 0.290331 0.999847
vt 0.290331 0.000153
vt 0.537114 0.999847
vt 0.580204 0.000153
vt 0.580204 0.999847
vt 0.188332 0.941244
vt 0.145242 0.058756
vt 0.188332 0.058756
vt 0.478511 0.058756
vt 0.537113 0.000153
vt 0.101846 0.941244
vt 0.043243 0.999847
vt 0.580510 0.059061
vt 0.580568 0.117663
vt 0.580510 0.117663
vt 0.246935 0.000153
vt 0.392024 0.941244
vt 0.333422 0.999847
vt 0.580568 0.176571
vt 0.580510 0.117969
vt 0.580568 0.117969
vt 0.580568 0.235479
vt 0.580510 0.176877
vt 0.580568 0.176877
vt 0.101846 0.058756
vt 0.144936 0.941244
vt 0.478511 0.941244
vt 0.435420 0.058756
vt 0.392024 0.058756
vt 0.435115 0.941244
vt 0.580568 0.000153
vt 0.145242 0.941244
vt 0.580568 0.059061
vt 0.580510 0.176571
vt 0.580510 0.235479
vt 0.144936 0.058756
vt 0.435420 0.941244
vt 0.435115 0.058756
s 0
usemtl Material.001
f 1/1/1 18/2/1 14/3/1
f 3/4/2 8/5/2 4/6/2
f 7/7/3 6/8/3 8/9/3
f 1/10/4 4/11/4 2/12/4
f 5/13/5 2/14/5 6/15/5
f 17/16/4 25/17/4 16/18/4
f 5/13/1 14/19/1 1/20/1
f 3/4/1 17/21/1 7/22/1
f 5/23/1 20/24/1 16/25/1
f 7/7/1 16/18/1 5/26/1
f 1/10/1 15/27/1 3/28/1
f 7/29/1 21/30/1 17/31/1
f 3/32/1 19/33/1 15/34/1
f 15/35/5 23/36/5 17/21/5
f 16/37/2 24/38/2 14/19/2
f 14/39/3 22/40/3 15/27/3
f 1/1/1 9/41/1 18/2/1
f 3/4/2 7/22/2 8/5/2
f 7/7/3 5/26/3 6/8/3
f 1/10/4 3/28/4 4/11/4
f 5/13/5 1/20/5 2/14/5
f 17/16/4 23/42/4 25/17/4
f 5/13/1 16/37/1 14/19/1
f 3/4/1 15/35/1 17/21/1
f 5/23/1 12/43/1 20/24/1
f 7/7/1 17/16/1 16/18/1
f 1/10/1 14/39/1 15/27/1
f 7/29/1 13/44/1 21/30/1
f 3/32/1 11/45/1 19/33/1
f 15/35/5 22/46/5 23/36/5
f 16/37/2 25/47/2 24/38/2
f 14/39/3 24/48/3 22/40/3
l 2 10
